<svg width="349" height="197" viewBox="0 0 349 197" fill="none" xmlns="http://www.w3.org/2000/svg">
<path d="M8.576 118.232L6.912 116.952H34.304C37.2907 116.952 39.7653 116.867 41.728 116.696C43.776 116.525 45.3973 116.269 46.592 115.928C47.7867 115.501 48.64 114.904 49.152 114.136C49.7493 113.368 50.1333 112.387 50.304 111.192L51.584 100.568H53.504V119H4.224V116.568L47.232 53.72L48.64 54.872H25.856C22.4427 54.872 19.712 54.9573 17.664 55.128C15.7013 55.2133 14.1653 55.4693 13.056 55.896C11.9467 56.3227 11.1787 56.8773 10.752 57.56C10.3253 58.2427 10.0267 59.1813 9.856 60.376L8.704 69.592H6.784V52.824H52.096V54.744L8.576 118.232ZM91.185 82.264C96.6463 82.264 101.254 82.8613 105.009 84.056C108.849 85.1653 111.921 86.7867 114.225 88.92C116.614 90.968 118.321 93.3573 119.345 96.088C120.454 98.8187 121.009 101.805 121.009 105.048C121.009 109.997 119.729 114.392 117.169 118.232C114.694 122.072 111.238 125.059 106.801 127.192C102.449 129.411 97.4143 130.52 91.697 130.52C86.2357 130.52 81.4143 129.581 77.233 127.704C73.0517 125.912 69.5103 123.395 66.609 120.152C63.793 116.995 61.5743 113.411 59.953 109.4L62.001 107.608C63.025 110.168 64.3903 112.728 66.097 115.288C67.8037 117.763 69.8517 119.939 72.241 121.816C74.7157 123.779 77.5317 125.315 80.689 126.424C83.9317 127.619 87.601 128.216 91.697 128.216C96.4757 128.216 100.657 127.32 104.241 125.528C107.825 123.736 110.598 121.091 112.561 117.592C114.524 114.093 115.505 109.912 115.505 105.048C115.505 100.696 114.566 96.9413 112.689 93.784C110.897 90.6267 108.124 88.1947 104.369 86.488C100.614 84.696 95.8357 83.8 90.033 83.8H80.817V81.624H88.497C93.0197 81.624 96.9877 80.8987 100.401 79.448C103.814 77.9973 106.502 75.864 108.465 73.048C110.428 70.232 111.409 66.6907 111.409 62.424C111.409 57.6453 110.513 53.7627 108.721 50.776C107.014 47.7893 104.668 45.6133 101.681 44.248C98.7797 42.8827 95.4943 42.2 91.825 42.2C86.3637 42.2 81.8837 43.096 78.385 44.888C74.8863 46.68 72.241 48.5573 70.449 50.52C70.705 50.0933 70.9183 49.6667 71.089 49.24C71.345 48.8133 71.601 48.4293 71.857 48.088C72.113 47.7467 72.3263 47.4053 72.497 47.064C72.753 46.6373 73.009 46.2533 73.265 45.912V57.816H67.121V48.856C68.401 47.6613 70.1503 46.3813 72.369 45.016C74.5877 43.5653 77.3183 42.3707 80.561 41.432C83.8037 40.408 87.6437 39.896 92.081 39.896C96.945 39.896 101.212 40.792 104.881 42.584C108.636 44.2907 111.58 46.7227 113.713 49.88C115.846 52.952 116.913 56.6213 116.913 60.888C116.913 65.9227 115.548 70.104 112.817 73.432C110.086 76.6747 106.588 79.1067 102.321 80.728C98.0543 82.3493 93.5743 83.16 88.881 83.16L94.641 81.88V83.16L91.185 82.264ZM131.578 119V117.08H131.834C133.797 117.08 135.503 116.995 136.954 116.824C138.405 116.653 139.557 116.355 140.41 115.928C141.263 115.416 141.69 114.776 141.69 114.008V58.2C141.69 57.432 141.477 56.8773 141.05 56.536C140.623 56.1093 139.855 55.8107 138.746 55.64C137.637 55.384 136.015 55.128 133.882 54.872L131.578 54.616V52.824H146.81V66.264V67.416V115.8C146.81 116.056 147.279 116.312 148.218 116.568C149.157 116.739 150.309 116.867 151.674 116.952C153.039 117.037 154.277 117.08 155.386 117.08H155.77V119H131.578ZM199.034 119H174.842V117.08H175.098C176.207 117.08 177.445 117.037 178.81 116.952C180.175 116.867 181.327 116.739 182.266 116.568C183.29 116.312 183.802 116.056 183.802 115.8V72.536C183.802 68.184 183.333 64.6853 182.394 62.04C181.541 59.3093 180.09 57.304 178.042 56.024C175.994 54.6587 173.178 53.976 169.594 53.976C166.181 53.976 162.981 54.744 159.994 56.28C157.007 57.816 154.234 59.992 151.674 62.808C149.114 65.624 146.682 68.952 144.378 72.792L143.482 70.36C145.871 66.4347 148.389 63.1067 151.034 60.376C153.679 57.56 156.581 55.384 159.738 53.848C162.981 52.312 166.479 51.544 170.234 51.544C174.159 51.544 177.487 52.2693 180.218 53.72C183.034 55.0853 185.167 57.2187 186.618 60.12C188.154 62.936 188.922 66.6053 188.922 71.128V114.008C188.922 114.776 189.349 115.416 190.202 115.928C191.055 116.355 192.207 116.653 193.658 116.824C195.194 116.995 196.901 117.08 198.778 117.08H199.034V119ZM216.348 34.52C215.153 34.52 214.129 34.136 213.276 33.368C212.508 32.6 212.124 31.576 212.124 30.296C212.124 29.016 212.508 27.992 213.276 27.224C214.129 26.456 215.111 26.072 216.22 26.072C217.415 26.072 218.396 26.456 219.164 27.224C219.932 27.992 220.316 29.016 220.316 30.296C220.316 31.576 219.932 32.6 219.164 33.368C218.481 34.136 217.543 34.52 216.348 34.52ZM220.06 52.824V114.008C220.06 115.288 220.999 116.141 222.876 116.568C224.753 116.909 227.1 117.08 229.916 117.08H230.172V119H204.828V117.08H205.084C207.985 117.08 210.332 116.909 212.124 116.568C214.001 116.141 214.94 115.288 214.94 114.008V58.456C214.94 57.2613 214.428 56.4507 213.404 56.024C212.38 55.5973 210.289 55.2133 207.132 54.872L204.828 54.616V52.824H220.06ZM234.78 55V53.208H236.7C238.748 53.208 240.54 53.08 242.076 52.824C243.697 52.4827 244.977 51.8427 245.916 50.904C246.855 49.9653 247.367 48.4293 247.452 46.296L250.78 52.824H269.34V55H234.78ZM251.164 104.792C251.164 108.205 251.676 110.893 252.7 112.856C253.809 114.733 255.217 116.099 256.924 116.952C258.716 117.72 260.679 118.104 262.812 118.104C264.604 118.104 266.183 117.976 267.548 117.72C268.913 117.379 270.151 116.909 271.26 116.312V118.616C270.577 118.957 269.767 119.256 268.828 119.512C267.975 119.768 266.993 119.939 265.884 120.024C264.86 120.195 263.708 120.28 262.428 120.28C259.612 120.28 256.924 119.768 254.364 118.744C251.889 117.72 249.884 116.013 248.348 113.624C246.812 111.235 246.044 108.077 246.044 104.152V53.976L247.068 53.72L247.964 38.232H251.164V104.792ZM293.569 23.256V114.392C293.569 115.075 293.996 115.629 294.849 116.056C295.702 116.397 296.854 116.653 298.305 116.824C299.756 116.995 301.377 117.08 303.169 117.08H303.425V119H278.337V117.08H278.593C280.47 117.08 282.134 116.995 283.585 116.824C285.121 116.653 286.316 116.355 287.169 115.928C288.022 115.416 288.449 114.776 288.449 114.008V28.632C288.449 27.9493 288.193 27.3947 287.681 26.968C287.254 26.456 286.444 26.1147 285.249 25.944C284.14 25.688 282.476 25.4747 280.257 25.304L277.953 25.048V23.256H293.569ZM345.665 119H321.601V117.08H321.857C322.966 117.08 324.161 117.037 325.441 116.952C326.806 116.867 328.001 116.739 329.025 116.568C330.049 116.312 330.561 116.056 330.561 115.8V72.536C330.561 68.184 330.092 64.6853 329.153 62.04C328.3 59.3093 326.849 57.304 324.801 56.024C322.753 54.6587 319.894 53.976 316.225 53.976C312.897 53.976 309.74 54.744 306.753 56.28C303.766 57.816 300.993 59.992 298.433 62.808C295.873 65.624 293.441 68.952 291.137 72.792L290.241 70.36C292.63 66.4347 295.148 63.1067 297.793 60.376C300.438 57.56 303.34 55.384 306.497 53.848C309.654 52.312 313.11 51.544 316.865 51.544C320.876 51.544 324.246 52.2693 326.977 53.72C329.793 55.0853 331.926 57.2187 333.377 60.12C334.913 62.936 335.681 66.6053 335.681 71.128V114.008C335.681 115.288 336.577 116.141 338.369 116.568C340.246 116.909 342.593 117.08 345.409 117.08H345.665V119Z" fill="white"/>
<path d="M127.82 179.84C129.46 179.84 130.78 179.78 131.78 179.66C132.82 179.5 133.58 179.24 134.06 178.88C134.58 178.48 134.88 177.92 134.96 177.2L135.5 172.04H136.88V182H110.3V179.9C112.78 178.38 115.14 176.88 117.38 175.4C119.66 173.88 121.74 172.36 123.62 170.84C125.54 169.32 127.2 167.76 128.6 166.16C130 164.56 131.08 162.88 131.84 161.12C132.64 159.36 133.04 157.52 133.04 155.6C133.04 153.44 132.64 151.7 131.84 150.38C131.08 149.02 130 148.02 128.6 147.38C127.2 146.74 125.58 146.42 123.74 146.42C122.14 146.42 120.66 146.64 119.3 147.08C117.98 147.52 116.78 148.1 115.7 148.82C114.66 149.5 113.7 150.26 112.82 151.1C113.02 150.74 113.16 150.42 113.24 150.14C113.36 149.86 113.46 149.64 113.54 149.48C113.62 149.32 113.72 149.18 113.84 149.06C114 148.94 114.22 148.86 114.5 148.82V154.58H111.62V149.42C112.34 148.78 113.28 148.12 114.44 147.44C115.6 146.72 116.96 146.12 118.52 145.64C120.08 145.16 121.82 144.92 123.74 144.92C126.14 144.92 128.22 145.34 129.98 146.18C131.78 147.02 133.16 148.24 134.12 149.84C135.12 151.4 135.62 153.32 135.62 155.6C135.62 157.56 135.16 159.48 134.24 161.36C133.36 163.2 132.12 165 130.52 166.76C128.96 168.52 127.18 170.22 125.18 171.86C123.18 173.46 121.06 175 118.82 176.48C116.58 177.92 114.36 179.28 112.16 180.56C112.12 180.52 112.08 180.46 112.04 180.38C112 180.26 111.98 180.16 111.98 180.08C112.02 179.96 112.04 179.88 112.04 179.84H127.82ZM157.374 182.66C155.334 182.66 153.434 182.2 151.674 181.28C149.954 180.32 148.434 179 147.114 177.32C145.794 175.6 144.774 173.6 144.054 171.32C143.334 169 142.974 166.48 142.974 163.76C142.974 161.04 143.334 158.54 144.054 156.26C144.774 153.94 145.794 151.94 147.114 150.26C148.434 148.54 149.954 147.22 151.674 146.3C153.434 145.34 155.334 144.86 157.374 144.86C159.414 144.86 161.294 145.34 163.014 146.3C164.774 147.22 166.314 148.54 167.634 150.26C168.954 151.94 169.974 153.94 170.694 156.26C171.414 158.54 171.774 161.04 171.774 163.76C171.774 166.48 171.414 169 170.694 171.32C169.974 173.6 168.954 175.6 167.634 177.32C166.314 179 164.774 180.32 163.014 181.28C161.294 182.2 159.414 182.66 157.374 182.66ZM157.374 181.1C159.174 181.1 160.794 180.7 162.234 179.9C163.714 179.06 164.954 177.88 165.954 176.36C166.994 174.8 167.794 172.96 168.354 170.84C168.914 168.72 169.194 166.36 169.194 163.76C169.194 161.2 168.914 158.86 168.354 156.74C167.794 154.62 166.994 152.78 165.954 151.22C164.954 149.66 163.714 148.46 162.234 147.62C160.794 146.78 159.174 146.36 157.374 146.36C155.574 146.36 153.934 146.78 152.454 147.62C151.014 148.46 149.774 149.66 148.734 151.22C147.734 152.78 146.954 154.62 146.394 156.74C145.834 158.86 145.554 161.2 145.554 163.76C145.554 166.32 145.834 168.68 146.394 170.84C146.954 172.96 147.734 174.8 148.734 176.36C149.774 177.88 151.014 179.06 152.454 179.9C153.934 180.7 155.574 181.1 157.374 181.1ZM194.968 179.84C196.608 179.84 197.928 179.78 198.928 179.66C199.968 179.5 200.728 179.24 201.208 178.88C201.728 178.48 202.028 177.92 202.108 177.2L202.648 172.04H204.028V182H177.448V179.9C179.928 178.38 182.288 176.88 184.528 175.4C186.808 173.88 188.888 172.36 190.768 170.84C192.688 169.32 194.348 167.76 195.748 166.16C197.148 164.56 198.228 162.88 198.988 161.12C199.788 159.36 200.188 157.52 200.188 155.6C200.188 153.44 199.788 151.7 198.988 150.38C198.228 149.02 197.148 148.02 195.748 147.38C194.348 146.74 192.728 146.42 190.888 146.42C189.288 146.42 187.808 146.64 186.448 147.08C185.128 147.52 183.928 148.1 182.848 148.82C181.808 149.5 180.848 150.26 179.968 151.1C180.168 150.74 180.308 150.42 180.388 150.14C180.508 149.86 180.608 149.64 180.688 149.48C180.768 149.32 180.868 149.18 180.988 149.06C181.148 148.94 181.368 148.86 181.648 148.82V154.58H178.768V149.42C179.488 148.78 180.428 148.12 181.588 147.44C182.748 146.72 184.108 146.12 185.668 145.64C187.228 145.16 188.968 144.92 190.888 144.92C193.288 144.92 195.368 145.34 197.128 146.18C198.928 147.02 200.308 148.24 201.268 149.84C202.268 151.4 202.768 153.32 202.768 155.6C202.768 157.56 202.308 159.48 201.388 161.36C200.508 163.2 199.268 165 197.668 166.76C196.108 168.52 194.328 170.22 192.328 171.86C190.328 173.46 188.208 175 185.968 176.48C183.728 177.92 181.508 179.28 179.308 180.56C179.268 180.52 179.228 180.46 179.188 180.38C179.148 180.26 179.128 180.16 179.128 180.08C179.168 179.96 179.188 179.88 179.188 179.84H194.968ZM223.923 164.72C226.483 164.72 228.643 165 230.403 165.56C232.203 166.08 233.643 166.84 234.723 167.84C235.843 168.8 236.643 169.94 237.123 171.26C237.643 172.54 237.903 173.94 237.903 175.46C237.903 177.78 237.303 179.84 236.103 181.64C234.943 183.44 233.323 184.84 231.243 185.84C229.203 186.88 226.843 187.4 224.163 187.4C221.563 187.4 219.283 186.96 217.323 186.08C215.363 185.24 213.723 184.06 212.403 182.54C211.083 181.06 210.043 179.38 209.283 177.5L210.723 176.6C211.163 177.76 211.763 178.9 212.523 180.02C213.323 181.14 214.263 182.14 215.343 183.02C216.463 183.9 217.743 184.6 219.183 185.12C220.623 185.64 222.283 185.9 224.163 185.9C226.403 185.9 228.363 185.48 230.043 184.64C231.723 183.84 233.023 182.66 233.943 181.1C234.863 179.54 235.323 177.66 235.323 175.46C235.323 173.46 234.883 171.74 234.003 170.3C233.163 168.86 231.863 167.74 230.103 166.94C228.343 166.14 226.103 165.74 223.383 165.74H219.063V164.24H222.663C224.743 164.24 226.583 163.92 228.183 163.28C229.783 162.6 231.043 161.62 231.963 160.34C232.923 159.02 233.403 157.4 233.403 155.48C233.403 153.32 232.983 151.58 232.143 150.26C231.343 148.94 230.243 147.98 228.843 147.38C227.483 146.74 225.943 146.42 224.223 146.42C221.663 146.42 219.563 146.86 217.923 147.74C216.283 148.62 215.043 149.52 214.203 150.44C214.283 150.12 214.383 149.82 214.503 149.54C214.623 149.26 214.743 149 214.863 148.76C215.023 148.52 215.143 148.32 215.223 148.16C215.343 147.96 215.443 147.82 215.523 147.74V153.68H212.643V149.12C213.243 148.56 214.063 147.96 215.103 147.32C216.143 146.64 217.423 146.08 218.943 145.64C220.463 145.16 222.263 144.92 224.343 144.92C226.623 144.92 228.623 145.34 230.343 146.18C232.103 146.98 233.483 148.12 234.483 149.6C235.483 151.04 235.983 152.76 235.983 154.76C235.983 157.16 235.343 159.14 234.063 160.7C232.783 162.22 231.143 163.36 229.143 164.12C227.143 164.88 225.043 165.26 222.843 165.26L225.423 164.48V165.32L223.923 164.72Z" fill="white"/>
</svg>
