<svg width="350" height="197" viewBox="0 0 350 197" fill="none" xmlns="http://www.w3.org/2000/svg">
<path d="M16 120.125H34.5625C37.8125 120.125 40.8125 119.958 43.5625 119.625C46.3125 119.25 48.6875 118.833 50.6875 118.375C53.0208 117.875 55.1458 117.271 57.0625 116.562L54.25 125.5C53.75 125.458 52.875 125.396 51.625 125.312C50.4167 125.271 49.125 125.208 47.75 125.125C46.4167 125.083 45.1458 125.042 43.9375 125C42.7292 125 41.9167 125 41.5 125H1V123.438L41.375 65.875H28.3125C24.8542 65.875 21.6667 66.0625 18.75 66.4375C15.875 66.8125 13.375 67.2292 11.25 67.6875C8.75 68.1875 6.5 68.7708 4.5 69.4375L8.5625 60.5C9.0625 60.5833 9.91667 60.6458 11.125 60.6875C12.375 60.7292 13.6875 60.7917 15.0625 60.875C16.4375 60.9167 17.7083 60.9583 18.875 61C20.0833 61 20.9167 61 21.375 61H56.5625V62.125L16 120.125ZM77.5625 72.75C79.8125 72.4583 82.1458 71.8958 84.5625 71.0625C87.0208 70.1875 89.2708 68.9792 91.3125 67.4375C93.3958 65.8958 95.1042 63.9583 96.4375 61.625C97.7708 59.2917 98.4375 56.4792 98.4375 53.1875C98.4375 51.3125 98.1667 49.5625 97.625 47.9375C97.0833 46.2708 96.2292 44.8125 95.0625 43.5625C93.9375 42.3125 92.4792 41.3333 90.6875 40.625C88.9375 39.875 86.8542 39.5 84.4375 39.5C81.6042 39.5 79.0417 39.8958 76.75 40.6875C74.5 41.4792 72.4792 42.4792 70.6875 43.6875C68.8958 44.8958 67.3333 46.25 66 47.75C64.6667 49.2083 63.5625 50.6458 62.6875 52.0625L61.8125 51.625L65.875 38.75C67.5 38.0833 69.1458 37.4583 70.8125 36.875C72.4792 36.25 74.2292 35.7292 76.0625 35.3125C77.9375 34.8542 79.9167 34.5 82 34.25C84.125 34 86.4375 33.875 88.9375 33.875C90.2292 33.875 91.6667 34 93.25 34.25C94.8333 34.4583 96.4375 34.8333 98.0625 35.375C99.7292 35.9167 101.333 36.6458 102.875 37.5625C104.417 38.4375 105.792 39.5417 107 40.875C108.25 42.2083 109.229 43.7917 109.938 45.625C110.688 47.4167 111.062 49.4792 111.062 51.8125C111.062 54.7292 110.479 57.2917 109.312 59.5C108.146 61.6667 106.708 63.5625 105 65.1875C103.292 66.7708 101.479 68.0833 99.5625 69.125C97.6458 70.125 95.9375 70.9167 94.4375 71.5C96.9375 71.7083 99.4792 72.2292 102.062 73.0625C104.688 73.8958 107.062 75.1667 109.188 76.875C111.312 78.5417 113.042 80.7292 114.375 83.4375C115.75 86.1458 116.438 89.4583 116.438 93.375C116.438 97.8333 115.604 102.062 113.938 106.062C112.312 110.062 110.104 113.792 107.312 117.25C104.521 120.708 101.292 123.896 97.625 126.812C93.9583 129.729 90.0833 132.333 86 134.625C81.9583 136.917 77.8333 138.896 73.625 140.562C69.4583 142.229 65.4792 143.521 61.6875 144.438L60.5 141.25C66.5 139.75 72.0833 137.625 77.25 134.875C82.4167 132.125 86.8958 128.792 90.6875 124.875C94.5208 120.917 97.5208 116.396 99.6875 111.312C101.896 106.229 103 100.604 103 94.4375C103 90.9792 102.5 88.0833 101.5 85.75C100.5 83.4167 99.1875 81.5625 97.5625 80.1875C95.9792 78.7708 94.1875 77.7708 92.1875 77.1875C90.2292 76.5625 88.25 76.25 86.25 76.25C85.0417 76.25 83.9167 76.3125 82.875 76.4375C81.8333 76.5625 80.9167 76.7083 80.125 76.875C79.2083 77.0417 78.3542 77.25 77.5625 77.5V72.75ZM176.75 82.875C176.75 77.375 175.646 73.3333 173.438 70.75C171.229 68.1667 168.271 66.875 164.562 66.875C163.229 66.875 161.729 67.1667 160.062 67.75C158.396 68.2917 156.688 69.0417 154.938 70C153.188 70.9167 151.438 72 149.688 73.25C147.938 74.5 146.292 75.8333 144.75 77.25L144.625 85.4375V100.562C144.625 104.104 144.667 107.208 144.75 109.875C144.833 112.5 144.958 114.771 145.125 116.688C145.292 118.604 145.479 120.208 145.688 121.5C145.896 122.792 146.125 123.875 146.375 124.75V125H131.938V124.75C132.188 123.875 132.417 122.792 132.625 121.5C132.875 120.208 133.062 118.604 133.188 116.688C133.354 114.771 133.479 112.5 133.562 109.875C133.688 107.208 133.75 104.104 133.75 100.562V85.4375C133.75 81.8958 133.688 78.8125 133.562 76.1875C133.479 73.5208 133.354 71.2292 133.188 69.3125C133.062 67.3958 132.875 65.7917 132.625 64.5C132.417 63.2083 132.188 62.125 131.938 61.25V61H146.375V61.25C146.042 62.2917 145.771 63.625 145.562 65.25C145.396 66.8333 145.208 68.9167 145 71.5C146.708 70.0833 148.542 68.6667 150.5 67.25C152.5 65.8333 154.562 64.5833 156.688 63.5C158.812 62.375 160.979 61.4792 163.188 60.8125C165.396 60.1042 167.562 59.75 169.688 59.75C172.938 59.75 175.688 60.3125 177.938 61.4375C180.229 62.5625 182.083 64.0417 183.5 65.875C184.958 67.7083 186 69.8125 186.625 72.1875C187.292 74.5208 187.625 76.8958 187.625 79.3125V100.562C187.625 104.104 187.667 107.208 187.75 109.875C187.833 112.5 187.958 114.771 188.125 116.688C188.292 118.604 188.479 120.208 188.688 121.5C188.896 122.792 189.125 123.875 189.375 124.75V125H174.938V124.75C175.188 123.875 175.417 122.792 175.625 121.5C175.875 120.208 176.062 118.604 176.188 116.688C176.354 114.771 176.479 112.5 176.562 109.875C176.688 107.208 176.75 104.104 176.75 100.562V82.875ZM206.875 85.4375C206.875 81.8958 206.812 78.8125 206.688 76.1875C206.604 73.5208 206.479 71.2292 206.312 69.3125C206.188 67.3958 206 65.7917 205.75 64.5C205.542 63.2083 205.312 62.125 205.062 61.25V61H219.5V61.25C219.25 62.125 219.021 63.2083 218.812 64.5C218.604 65.7917 218.417 67.3958 218.25 69.3125C218.083 71.2292 217.958 73.5208 217.875 76.1875C217.792 78.8125 217.75 81.8958 217.75 85.4375V100.562C217.75 104.104 217.792 107.208 217.875 109.875C217.958 112.5 218.083 114.771 218.25 116.688C218.417 118.604 218.604 120.208 218.812 121.5C219.021 122.792 219.25 123.875 219.5 124.75V125H205.062V124.75C205.312 123.875 205.542 122.792 205.75 121.5C206 120.208 206.188 118.604 206.312 116.688C206.479 114.771 206.604 112.5 206.688 109.875C206.812 107.208 206.875 104.104 206.875 100.562V85.4375ZM205.562 42.0625C205.562 41.1458 205.729 40.2917 206.062 39.5C206.438 38.6667 206.917 37.9583 207.5 37.375C208.083 36.75 208.771 36.2708 209.562 35.9375C210.396 35.5625 211.292 35.375 212.25 35.375C213.208 35.375 214.083 35.5625 214.875 35.9375C215.708 36.2708 216.417 36.75 217 37.375C217.625 37.9583 218.104 38.6667 218.438 39.5C218.812 40.2917 219 41.1458 219 42.0625C219 43.9792 218.354 45.5833 217.062 46.875C215.771 48.1667 214.167 48.8125 212.25 48.8125C211.292 48.8125 210.396 48.6458 209.562 48.3125C208.771 47.9375 208.083 47.4583 207.5 46.875C206.917 46.25 206.438 45.5417 206.062 44.75C205.729 43.9167 205.562 43.0208 205.562 42.0625ZM260 121.312C261.25 121.312 262.479 121.083 263.688 120.625C264.938 120.167 266.125 119.542 267.25 118.75C268.417 117.958 269.521 117.062 270.562 116.062C271.646 115.021 272.646 113.938 273.562 112.812L274.188 113.125L270.125 123.188C269.625 123.438 269 123.75 268.25 124.125C267.542 124.458 266.667 124.771 265.625 125.062C264.625 125.396 263.438 125.667 262.062 125.875C260.688 126.125 259.062 126.25 257.188 126.25C251.604 126.25 247.25 124.75 244.125 121.75C241.042 118.708 239.5 113.979 239.5 107.562V65.875L229 66.25V60.75C230.292 60.8333 231.833 60.8958 233.625 60.9375C235.417 60.9792 237.375 61 239.5 61C239.458 58.0417 239.375 55.4375 239.25 53.1875C239.167 50.8958 239.042 48.9167 238.875 47.25C238.75 45.5417 238.583 44.1042 238.375 42.9375C238.167 41.7708 237.958 40.7917 237.75 40V39.75H252.188V40C251.938 40.7917 251.708 41.7708 251.5 42.9375C251.292 44.1042 251.104 45.5208 250.938 47.1875C250.812 48.8542 250.688 50.8333 250.562 53.125C250.479 55.375 250.417 58 250.375 61C253 60.9583 255.562 60.9167 258.062 60.875C260.604 60.7917 262.896 60.7083 264.938 60.625C267.021 60.5 268.771 60.3958 270.188 60.3125C271.646 60.1875 272.604 60.0833 273.062 60L271.938 66.375C269.812 66.3333 267.583 66.2708 265.25 66.1875C263.25 66.1042 260.958 66.0417 258.375 66C255.792 65.9583 253.125 65.9167 250.375 65.875V108.875C250.375 111.458 250.646 113.562 251.188 115.188C251.771 116.771 252.5 118.021 253.375 118.938C254.292 119.854 255.312 120.479 256.438 120.812C257.604 121.146 258.792 121.312 260 121.312ZM329.5 82.875C329.5 77.375 328.396 73.3333 326.188 70.75C323.979 68.1667 321.021 66.875 317.312 66.875C315.938 66.875 314.396 67.1667 312.688 67.75C311.021 68.2917 309.292 69.0417 307.5 70C305.75 70.9583 304 72.0833 302.25 73.375C300.5 74.625 298.875 75.9583 297.375 77.375V100.562C297.375 104.104 297.417 107.208 297.5 109.875C297.583 112.5 297.708 114.771 297.875 116.688C298.042 118.604 298.229 120.208 298.438 121.5C298.646 122.792 298.875 123.875 299.125 124.75V125H284.688V124.75C284.938 123.875 285.167 122.792 285.375 121.5C285.625 120.208 285.812 118.604 285.938 116.688C286.104 114.771 286.229 112.5 286.312 109.875C286.438 107.208 286.5 104.104 286.5 100.562V56C286.5 52.4583 286.438 49.375 286.312 46.75C286.229 44.0833 286.104 41.7917 285.938 39.875C285.812 37.9583 285.625 36.3542 285.375 35.0625C285.167 33.7708 284.938 32.6875 284.688 31.8125V31.5625H299.125V31.8125C298.875 32.6875 298.646 33.7708 298.438 35.0625C298.229 36.3542 298.042 37.9583 297.875 39.875C297.708 41.7917 297.583 44.0833 297.5 46.75C297.417 49.375 297.375 52.4583 297.375 56V72C299.042 70.5 300.875 69.0208 302.875 67.5625C304.917 66.1042 307.021 64.7917 309.188 63.625C311.354 62.4583 313.562 61.5208 315.812 60.8125C318.062 60.1042 320.271 59.75 322.438 59.75C325.688 59.75 328.438 60.3125 330.688 61.4375C332.979 62.5625 334.833 64.0417 336.25 65.875C337.708 67.7083 338.75 69.8125 339.375 72.1875C340.042 74.5208 340.375 76.8958 340.375 79.3125V100.562C340.375 104.104 340.417 107.208 340.5 109.875C340.583 112.5 340.708 114.771 340.875 116.688C341.042 118.604 341.229 120.208 341.438 121.5C341.646 122.792 341.875 123.875 342.125 124.75V125H327.688V124.75C327.938 123.875 328.167 122.792 328.375 121.5C328.625 120.208 328.812 118.604 328.938 116.688C329.104 114.771 329.229 112.5 329.312 109.875C329.438 107.208 329.5 104.104 329.5 100.562V82.875Z" fill="white"/>
<path d="M127.82 179.84C129.46 179.84 130.78 179.78 131.78 179.66C132.82 179.5 133.58 179.24 134.06 178.88C134.58 178.48 134.88 177.92 134.96 177.2L135.5 172.04H136.88V182H110.3V179.9C112.78 178.38 115.14 176.88 117.38 175.4C119.66 173.88 121.74 172.36 123.62 170.84C125.54 169.32 127.2 167.76 128.6 166.16C130 164.56 131.08 162.88 131.84 161.12C132.64 159.36 133.04 157.52 133.04 155.6C133.04 153.44 132.64 151.7 131.84 150.38C131.08 149.02 130 148.02 128.6 147.38C127.2 146.74 125.58 146.42 123.74 146.42C122.14 146.42 120.66 146.64 119.3 147.08C117.98 147.52 116.78 148.1 115.7 148.82C114.66 149.5 113.7 150.26 112.82 151.1C113.02 150.74 113.16 150.42 113.24 150.14C113.36 149.86 113.46 149.64 113.54 149.48C113.62 149.32 113.72 149.18 113.84 149.06C114 148.94 114.22 148.86 114.5 148.82V154.58H111.62V149.42C112.34 148.78 113.28 148.12 114.44 147.44C115.6 146.72 116.96 146.12 118.52 145.64C120.08 145.16 121.82 144.92 123.74 144.92C126.14 144.92 128.22 145.34 129.98 146.18C131.78 147.02 133.16 148.24 134.12 149.84C135.12 151.4 135.62 153.32 135.62 155.6C135.62 157.56 135.16 159.48 134.24 161.36C133.36 163.2 132.12 165 130.52 166.76C128.96 168.52 127.18 170.22 125.18 171.86C123.18 173.46 121.06 175 118.82 176.48C116.58 177.92 114.36 179.28 112.16 180.56C112.12 180.52 112.08 180.46 112.04 180.38C112 180.26 111.98 180.16 111.98 180.08C112.02 179.96 112.04 179.88 112.04 179.84H127.82ZM157.374 182.66C155.334 182.66 153.434 182.2 151.674 181.28C149.954 180.32 148.434 179 147.114 177.32C145.794 175.6 144.774 173.6 144.054 171.32C143.334 169 142.974 166.48 142.974 163.76C142.974 161.04 143.334 158.54 144.054 156.26C144.774 153.94 145.794 151.94 147.114 150.26C148.434 148.54 149.954 147.22 151.674 146.3C153.434 145.34 155.334 144.86 157.374 144.86C159.414 144.86 161.294 145.34 163.014 146.3C164.774 147.22 166.314 148.54 167.634 150.26C168.954 151.94 169.974 153.94 170.694 156.26C171.414 158.54 171.774 161.04 171.774 163.76C171.774 166.48 171.414 169 170.694 171.32C169.974 173.6 168.954 175.6 167.634 177.32C166.314 179 164.774 180.32 163.014 181.28C161.294 182.2 159.414 182.66 157.374 182.66ZM157.374 181.1C159.174 181.1 160.794 180.7 162.234 179.9C163.714 179.06 164.954 177.88 165.954 176.36C166.994 174.8 167.794 172.96 168.354 170.84C168.914 168.72 169.194 166.36 169.194 163.76C169.194 161.2 168.914 158.86 168.354 156.74C167.794 154.62 166.994 152.78 165.954 151.22C164.954 149.66 163.714 148.46 162.234 147.62C160.794 146.78 159.174 146.36 157.374 146.36C155.574 146.36 153.934 146.78 152.454 147.62C151.014 148.46 149.774 149.66 148.734 151.22C147.734 152.78 146.954 154.62 146.394 156.74C145.834 158.86 145.554 161.2 145.554 163.76C145.554 166.32 145.834 168.68 146.394 170.84C146.954 172.96 147.734 174.8 148.734 176.36C149.774 177.88 151.014 179.06 152.454 179.9C153.934 180.7 155.574 181.1 157.374 181.1ZM194.968 179.84C196.608 179.84 197.928 179.78 198.928 179.66C199.968 179.5 200.728 179.24 201.208 178.88C201.728 178.48 202.028 177.92 202.108 177.2L202.648 172.04H204.028V182H177.448V179.9C179.928 178.38 182.288 176.88 184.528 175.4C186.808 173.88 188.888 172.36 190.768 170.84C192.688 169.32 194.348 167.76 195.748 166.16C197.148 164.56 198.228 162.88 198.988 161.12C199.788 159.36 200.188 157.52 200.188 155.6C200.188 153.44 199.788 151.7 198.988 150.38C198.228 149.02 197.148 148.02 195.748 147.38C194.348 146.74 192.728 146.42 190.888 146.42C189.288 146.42 187.808 146.64 186.448 147.08C185.128 147.52 183.928 148.1 182.848 148.82C181.808 149.5 180.848 150.26 179.968 151.1C180.168 150.74 180.308 150.42 180.388 150.14C180.508 149.86 180.608 149.64 180.688 149.48C180.768 149.32 180.868 149.18 180.988 149.06C181.148 148.94 181.368 148.86 181.648 148.82V154.58H178.768V149.42C179.488 148.78 180.428 148.12 181.588 147.44C182.748 146.72 184.108 146.12 185.668 145.64C187.228 145.16 188.968 144.92 190.888 144.92C193.288 144.92 195.368 145.34 197.128 146.18C198.928 147.02 200.308 148.24 201.268 149.84C202.268 151.4 202.768 153.32 202.768 155.6C202.768 157.56 202.308 159.48 201.388 161.36C200.508 163.2 199.268 165 197.668 166.76C196.108 168.52 194.328 170.22 192.328 171.86C190.328 173.46 188.208 175 185.968 176.48C183.728 177.92 181.508 179.28 179.308 180.56C179.268 180.52 179.228 180.46 179.188 180.38C179.148 180.26 179.128 180.16 179.128 180.08C179.168 179.96 179.188 179.88 179.188 179.84H194.968ZM223.923 164.72C226.483 164.72 228.643 165 230.403 165.56C232.203 166.08 233.643 166.84 234.723 167.84C235.843 168.8 236.643 169.94 237.123 171.26C237.643 172.54 237.903 173.94 237.903 175.46C237.903 177.78 237.303 179.84 236.103 181.64C234.943 183.44 233.323 184.84 231.243 185.84C229.203 186.88 226.843 187.4 224.163 187.4C221.563 187.4 219.283 186.96 217.323 186.08C215.363 185.24 213.723 184.06 212.403 182.54C211.083 181.06 210.043 179.38 209.283 177.5L210.723 176.6C211.163 177.76 211.763 178.9 212.523 180.02C213.323 181.14 214.263 182.14 215.343 183.02C216.463 183.9 217.743 184.6 219.183 185.12C220.623 185.64 222.283 185.9 224.163 185.9C226.403 185.9 228.363 185.48 230.043 184.64C231.723 183.84 233.023 182.66 233.943 181.1C234.863 179.54 235.323 177.66 235.323 175.46C235.323 173.46 234.883 171.74 234.003 170.3C233.163 168.86 231.863 167.74 230.103 166.94C228.343 166.14 226.103 165.74 223.383 165.74H219.063V164.24H222.663C224.743 164.24 226.583 163.92 228.183 163.28C229.783 162.6 231.043 161.62 231.963 160.34C232.923 159.02 233.403 157.4 233.403 155.48C233.403 153.32 232.983 151.58 232.143 150.26C231.343 148.94 230.243 147.98 228.843 147.38C227.483 146.74 225.943 146.42 224.223 146.42C221.663 146.42 219.563 146.86 217.923 147.74C216.283 148.62 215.043 149.52 214.203 150.44C214.283 150.12 214.383 149.82 214.503 149.54C214.623 149.26 214.743 149 214.863 148.76C215.023 148.52 215.143 148.32 215.223 148.16C215.343 147.96 215.443 147.82 215.523 147.74V153.68H212.643V149.12C213.243 148.56 214.063 147.96 215.103 147.32C216.143 146.64 217.423 146.08 218.943 145.64C220.463 145.16 222.263 144.92 224.343 144.92C226.623 144.92 228.623 145.34 230.343 146.18C232.103 146.98 233.483 148.12 234.483 149.6C235.483 151.04 235.983 152.76 235.983 154.76C235.983 157.16 235.343 159.14 234.063 160.7C232.783 162.22 231.143 163.36 229.143 164.12C227.143 164.88 225.043 165.26 222.843 165.26L225.423 164.48V165.32L223.923 164.72Z" fill="white"/>
</svg>
